<svg aria-hidden="true" style="position: absolute; width: 0; height: 0; overflow: hidden;" version="1.1" xmlns="http://www.w3.org/2000/svg" xmlns:xlink="http://www.w3.org/1999/xlink">
<defs>
<symbol id="icon-instagram" viewBox="0 0 32 32">
<path d="M16 10.25c1 0 1.95 0.3 2.85 0.8s1.6 1.2 2.1 2.1c0.5 0.9 0.8 1.85 0.8 2.85 0 1.050-0.3 2-0.8 2.9s-1.2 1.6-2.1 2.1c-0.9 0.5-1.85 0.75-2.85 0.75-1.050 0-2-0.25-2.9-0.75s-1.6-1.2-2.1-2.1c-0.5-0.9-0.75-1.85-0.75-2.9 0-1 0.25-1.95 0.75-2.85s1.2-1.6 2.1-2.1c0.9-0.5 1.85-0.8 2.9-0.8zM16 19.75c1 0 1.9-0.35 2.65-1.1 0.7-0.7 1.1-1.6 1.1-2.65 0-1-0.4-1.9-1.1-2.65-0.75-0.7-1.65-1.1-2.65-1.1-1.050 0-1.95 0.4-2.65 1.1-0.75 0.75-1.1 1.65-1.1 2.65 0 1.050 0.35 1.95 1.1 2.65 0.7 0.75 1.6 1.1 2.65 1.1zM23.35 10c0-0.35-0.15-0.65-0.4-0.95-0.3-0.25-0.6-0.4-0.95-0.4-0.4 0-0.7 0.15-0.95 0.4-0.3 0.3-0.4 0.6-0.4 0.95 0 0.4 0.1 0.7 0.4 0.95 0.25 0.3 0.55 0.4 0.95 0.4 0.35 0 0.65-0.1 0.9-0.4 0.25-0.25 0.4-0.55 0.45-0.95zM27.15 11.35c0 0.95 0.050 2.5 0.050 4.65 0 2.2-0.050 3.75-0.1 4.7s-0.2 1.75-0.4 2.45c-0.3 0.85-0.8 1.6-1.4 2.2s-1.35 1.050-2.15 1.35c-0.7 0.25-1.55 0.4-2.5 0.45s-2.5 0.050-4.65 0.050c-2.2 0-3.75 0-4.7-0.050s-1.75-0.2-2.45-0.5c-0.85-0.25-1.6-0.7-2.2-1.3s-1.050-1.35-1.35-2.2c-0.25-0.7-0.4-1.5-0.45-2.45s-0.050-2.5-0.050-4.7c0-2.15 0-3.7 0.050-4.65s0.2-1.8 0.45-2.5c0.3-0.8 0.75-1.55 1.35-2.15s1.35-1.1 2.2-1.4c0.7-0.2 1.5-0.35 2.45-0.4s2.5-0.1 4.7-0.1c2.15 0 3.7 0.050 4.65 0.1s1.8 0.2 2.5 0.4c0.8 0.3 1.55 0.8 2.15 1.4s1.1 1.35 1.4 2.15c0.2 0.7 0.35 1.55 0.45 2.5zM24.75 22.6c0.2-0.55 0.3-1.45 0.4-2.7 0-0.7 0.050-1.75 0.050-3.1v-1.6c0-1.35-0.050-2.4-0.050-3.1-0.1-1.25-0.2-2.15-0.4-2.7-0.4-1-1.15-1.75-2.15-2.15-0.55-0.2-1.45-0.3-2.7-0.4-0.75 0-1.8-0.050-3.1-0.050h-1.6c-1.35 0-2.4 0.050-3.1 0.050-1.25 0.1-2.15 0.2-2.7 0.4-1.050 0.4-1.75 1.15-2.15 2.15-0.2 0.55-0.35 1.45-0.4 2.7-0.050 0.75-0.050 1.8-0.050 3.1v1.6c0 1.35 0 2.4 0.050 3.1 0.050 1.25 0.2 2.15 0.4 2.7 0.4 1.050 1.15 1.75 2.15 2.15 0.55 0.2 1.45 0.35 2.7 0.4 0.7 0.050 1.75 0.050 3.1 0.050h1.6c1.35 0 2.4 0 3.1-0.050 1.25-0.050 2.15-0.2 2.7-0.4 1-0.4 1.75-1.15 2.15-2.15z"></path>
</symbol>
<symbol id="icon-facebook" viewBox="0 0 32 32">
<path d="M32 16.097c0-8.836-7.164-16-16-16s-16 7.164-16 16c0 7.987 5.851 14.605 13.5 15.805v-11.18h-4.063v-4.627h4.063v-3.523c0-4.009 2.389-6.225 6.044-6.225 1.749 0 3.581 0.313 3.581 0.313v3.937h-2.019c-1.988 0-2.608 1.233-2.608 2.499v3h4.437l-0.709 4.627h-3.728v11.18c7.651-1.201 13.501-7.821 13.501-15.807z"></path>
</symbol>
<symbol id="icon-twitter" viewBox="0 0 32 32">
<path d="M24.881 12.4c0.875-0.635 1.662-1.396 2.319-2.327-0.875 0.381-1.75 0.635-2.625 0.719 0.962-0.592 1.662-1.396 2.013-2.454-0.919 0.508-1.881 0.888-2.931 1.058-0.438-0.423-0.963-0.762-1.531-1.015s-1.181-0.381-1.837-0.381c-0.831 0-1.575 0.212-2.275 0.592-0.7 0.423-1.269 0.973-1.662 1.65-0.438 0.677-0.613 1.438-0.613 2.2 0 0.338 0 0.677 0.087 1.015-1.881-0.085-3.631-0.508-5.294-1.354-1.663-0.804-3.019-1.904-4.156-3.3-0.438 0.719-0.656 1.481-0.656 2.242s0.175 1.481 0.569 2.115c0.35 0.677 0.875 1.185 1.487 1.608-0.744 0-1.444-0.212-2.056-0.592v0.085c0 1.058 0.35 1.989 1.050 2.792 0.7 0.846 1.575 1.354 2.625 1.565-0.438 0.085-0.831 0.127-1.225 0.127-0.263 0-0.569 0-0.831-0.042 0.263 0.889 0.788 1.608 1.575 2.2s1.662 0.846 2.712 0.846c-1.706 1.269-3.631 1.904-5.731 1.904-0.438 0-0.787 0-1.094-0.042 2.1 1.354 4.462 1.988 7.044 1.988 2.669 0 5.031-0.635 7.131-1.988 1.881-1.185 3.369-2.75 4.419-4.781 1.006-1.861 1.531-3.85 1.531-5.881 0-0.254-0.044-0.423-0.044-0.55z"></path>
</symbol>
<symbol id="icon-linkedin" viewBox="0 0 32 32">
<path d="M27.263 27.269h-4.739v-7.425c0-1.771-0.036-4.049-2.469-4.049-2.471 0-2.848 1.927-2.848 3.919v7.556h-4.739v-15.269h4.552v2.081h0.061c0.636-1.2 2.183-2.467 4.493-2.467 4.801 0 5.689 3.16 5.689 7.273v8.381h-0.001zM7.116 9.911c-1.525 0-2.751-1.235-2.751-2.753 0-1.517 1.227-2.751 2.751-2.751 1.52 0 2.752 1.233 2.752 2.751 0 1.519-1.233 2.753-2.752 2.753zM9.492 27.269h-4.752v-15.269h4.752v15.269zM29.633 0h-27.272c-1.305 0-2.361 1.032-2.361 2.305v27.389c0 1.275 1.056 2.305 2.361 2.305h27.268c1.304 0 2.371-1.031 2.371-2.305v-27.389c0-1.273-1.067-2.305-2.371-2.305h0.004z"></path>
</symbol>
</defs>
</svg>
